<svg xmlns="http://www.w3.org/2000/svg" fill="none" viewBox="0 0 235 132">
  <path fill="#003D29" d="M195.681 31.34a25.556 25.556 0 0 0-2.433-5.13c-5.31-8.607-14.189-13.695-26.63-15.272-16.12-1.387-29.152 3.02-39.084 13.218-6.997 8.242-10.502 16.848-10.523 25.833-.014 4.163.732 8.403 2.216 12.727L87.266 88.808l11.701 14.304 33.321-30.213a36.347 36.347 0 0 0 8.056 2.544c.209.056.411.091.606.112 4.342.8 8.991.897 13.96.301 6.537-.791 12.517-2.649 17.932-5.578a45.017 45.017 0 0 0 5.262-3.259 51.846 51.846 0 0 0 5.903-4.976c4.53-4.415 7.785-9.132 9.771-14.15 1.554-3.903 2.328-7.996 2.328-12.278 0-1.185-.063-2.348-.181-3.483-.077-.26-.161-.52-.251-.785M139.8 28.389a38.111 38.111 0 0 1 4.544-3.07c10.385-5.039 19.522-6.216 27.418-3.518 6.593 2.306 10.51 6.35 11.743 12.132.216 1.009.342 2.032.356 3.07v.784c-.077 4.121-1.638 8.298-4.691 12.538a15.393 15.393 0 0 1-1.143 1.5c-.139.217-.299.441-.467.673a31.466 31.466 0 0 1-3.08 3.181c-3.568 3.28-7.862 5.838-12.886 7.675a36.984 36.984 0 0 1-4.077 1.233l-3.973.785c-.613.084-1.213.147-1.791.19l-2.795.111a33.583 33.583 0 0 1-3.721-.301l-2.217-.484a22.446 22.446 0 0 1-2.216-.595c-6.335-2.054-10.259-5.908-11.778-11.571a22.082 22.082 0 0 1-.321-1.535l-.216-1.57a15.098 15.098 0 0 1-.035-.974v-.336c.084-3.322.934-6.518 2.544-9.58a34.226 34.226 0 0 1 2.077-3.372c.174-.217.342-.441.502-.672a52.795 52.795 0 0 1 1.645-2.019c1.101-1.254 2.627-2.677 4.578-4.268v-.007Z"/>
  <path fill="#FAF1E5" d="M144.351 25.312a37.475 37.475 0 0 0-4.544 3.07c-1.958 1.59-3.485 3.013-4.579 4.268a68.093 68.093 0 0 0-1.645 2.018c-.16.232-.327.456-.501.673a34.36 34.36 0 0 0-2.077 3.371c-1.61 3.07-2.453 6.266-2.544 9.58v.337c0 .322.014.652.035.974l.216 1.57c.09.519.202 1.03.32 1.535 1.513 5.663 5.443 9.517 11.779 11.57.717.239 1.463.435 2.216.596l2.216.484c1.206.161 2.446.266 3.722.301l2.794-.112a28.415 28.415 0 0 0 1.792-.19l3.972-.784a36.984 36.984 0 0 0 4.077-1.233c5.025-1.837 9.318-4.395 12.886-7.675a33.044 33.044 0 0 0 3.081-3.181c.167-.232.32-.456.467-.673.397-.449.773-.946 1.143-1.5 3.052-4.24 4.614-8.424 4.69-12.538v-.785a16.2 16.2 0 0 0-.355-3.07c-1.234-5.781-5.144-9.825-11.744-12.13-7.896-2.692-17.033-1.522-27.417 3.517v.007Z"/>
  <path fill="#0AAD0A" d="M196.111 48.895c1.401-6.18 1.338-11.774-.181-16.77.119 1.135.181 2.298.181 3.483 0 4.282-.773 8.375-2.327 12.278-1.987 5.025-5.248 9.742-9.771 14.15a51.023 51.023 0 0 1-5.904 4.976 44.909 44.909 0 0 1-5.261 3.259c-5.416 2.93-11.395 4.787-17.932 5.579-4.97.595-9.618.497-13.96-.302a3.976 3.976 0 0 1-.606-.112 36.36 36.36 0 0 1-8.057-2.544l-33.32 30.213c3.47.624 6.147.196 8.014-1.276l26.414-24.108a35.281 35.281 0 0 0 6.942 2.32c4.802 1.1 10.022 1.31 15.639.637 7.018-.848 13.388-2.915 19.117-6.216a49.205 49.205 0 0 0 3.004-1.871 50.675 50.675 0 0 0 6.976-5.726c5.659-5.516 9.332-11.508 11.025-17.97h.007Z"/>
  <path fill="#FAF1E5" d="M125.995 94.198c.551-1.956.865-3.673.934-5.165.133-3.519-.836-5.65-2.899-6.4-.885-.328-1.861-.328-2.934 0-2.237 6.287-.599 10.142 4.906 11.572m-3.617-29.877c-1.979 1.058-4.112 1.486-6.404 1.276-3.095-.477-4.816-1.963-5.158-4.458-.188.014-.383.028-.571.035-8.14.68-15.43 2.727-21.87 6.14-4.746 2.649-9.311 6.342-13.709 11.08l-6.432 9.643-5.011 10.162-8.886 26.394h50.388c7.827-5.509 13.785-12.622 17.862-21.341 1.555-3.434 2.691-6.454 3.401-9.061-5.505-1.43-7.136-5.285-4.906-11.571a9.927 9.927 0 0 0-1.826.897c-1.498.995-2.892 2.502-4.188 4.527.557 5.607-1.687 9.28-6.733 11.01-1.136 2.264-3.241 3.862-6.3 4.794a6.911 6.911 0 0 1-1.039 1.276c-2.146 2.27-4.878 2.852-8.195 1.759-.44-5.565-2.684-10.842-6.733-15.84 4.042 4.998 6.287 10.275 6.733 15.84 3.317 1.093 6.049.511 8.195-1.759a6.688 6.688 0 0 0 1.039-1.276c.188-.259.355-.532.502-.827.934-1.85 1.226-4.12.892-6.812-1.506-8.585-6.147-14.199-13.925-16.848 7.778 2.642 12.419 8.263 13.925 16.848.334 2.698.035 4.969-.892 6.812a6.723 6.723 0 0 1-.502.827c3.059-.932 5.164-2.53 6.3-4.794.927-1.836 1.227-4.106.892-6.812-1.505-8.585-6.147-14.198-13.924-16.848 7.777 2.642 12.419 8.263 13.924 16.848.335 2.706.035 4.976-.892 6.813 5.046-1.732 7.29-5.397 6.733-11.01 0-.148-.014-.295-.035-.45-.858-4.863-2.718-8.767-5.583-11.717-2.188-2.278-4.962-3.988-8.342-5.13 3.373 1.142 6.154 2.852 8.342 5.13 9.562-.883 14.085-4.135 13.57-9.77a4.42 4.42 0 0 0-.642-1.794m-6.404 1.276c2.292.21 4.432-.218 6.404-1.276-1.47-2.425-5.324-3.49-11.562-3.182.342 2.495 2.063 3.981 5.158 4.458Z"/>
  <path fill="#003D29" d="M54.346 124.95s-.056 0-.077-.007a.343.343 0 0 1-.258-.42c.049-.211 4.913-21.067 14.454-37.586 3.994-6.924 9.047-12.615 15.012-16.911a47.53 47.53 0 0 1 4.719-3.007c6.453-3.434 13.862-5.522 22.009-6.202l.578-.035h.007c6.44-.316 10.322.778 11.89 3.35.348.567.571 1.22.676 1.934.272 2.95-.788 5.305-3.143 7.001-2.182 1.577-5.555 2.615-10.015 3.098 2.537 2.831 4.244 6.51 5.094 10.94 1.171-1.689 2.44-2.986 3.792-3.876.662-.413 1.296-.721 1.902-.918 1.136-.364 2.203-.364 3.164 0 2.196.792 3.248 3.056 3.123 6.721-.084 1.514-.398 3.28-.941 5.25-.725 2.614-1.882 5.676-3.436 9.11-4.091 8.733-10.134 15.958-17.981 21.481a.354.354 0 0 1-.488-.084.359.359 0 0 1 .084-.491c7.743-5.452 13.715-12.587 17.744-21.2 1.47-3.252 2.578-6.16 3.303-8.662-2.453-.701-4.147-1.914-5.039-3.617-1.003-1.906-1.003-4.457 0-7.582-.348.154-.704.35-1.073.574-1.429.94-2.781 2.397-4.014 4.317.515 5.649-1.791 9.42-6.858 11.207-1.178 2.242-3.297 3.861-6.307 4.807a8.98 8.98 0 0 1-1.011 1.241c-2.14 2.235-4.844 2.901-8.063 1.983.18 2.846-.105 5.789-.85 8.775a.352.352 0 0 1-.426.252.35.35 0 0 1-.25-.428c.773-3.09 1.038-6.132.794-9.054-.446-5.46-2.69-10.723-6.67-15.643a.354.354 0 0 1 .049-.49.349.349 0 0 1 .488.048c4.014 4.962 6.3 10.275 6.802 15.797 3.094.967 5.59.4 7.617-1.724a7.98 7.98 0 0 0 .997-1.24c.167-.246.321-.512.46-.785.892-1.773 1.185-4.002.857-6.609-1.47-8.389-6.077-13.968-13.688-16.56a.348.348 0 0 1 .223-.66c7.876 2.678 12.636 8.439 14.155 17.122.342 2.768.028 5.13-.927 7.029 0 .014-.014.021-.014.035 2.474-.925 4.217-2.376 5.192-4.317.893-1.766 1.185-3.988.858-6.616-1.471-8.389-6.078-13.967-13.688-16.56a.348.348 0 0 1 .223-.66c7.875 2.678 12.635 8.439 14.155 17.115.299 2.411.104 4.507-.579 6.259 4.37-1.78 6.245-5.173 5.743-10.352l-.056-.441c-.836-4.752-2.676-8.635-5.471-11.515-2.146-2.222-4.913-3.918-8.217-5.039a.348.348 0 0 1 .223-.659c3.353 1.136 6.168 2.853 8.378 5.095 4.606-.441 8.042-1.457 10.217-3.027 2.167-1.563 3.101-3.645 2.857-6.35a4.466 4.466 0 0 0-.418-1.367c-1.959.975-4.084 1.36-6.314 1.157-3.137-.484-4.949-1.97-5.416-4.436l-.257.014c-8.05.672-15.36 2.733-21.73 6.118a48.262 48.262 0 0 0-4.65 2.964c-5.882 4.24-10.864 9.861-14.81 16.694-9.47 16.407-14.314 37.159-14.363 37.369a.35.35 0 0 1-.341.273Zm67.017-42.036c-1.115 3.182-1.185 5.726-.216 7.57.801 1.52 2.348 2.62 4.606 3.265.474-1.787.753-3.385.83-4.759.118-3.37-.76-5.347-2.67-6.034-.773-.294-1.63-.308-2.55-.049v.007Zm-10.148-21.46c.439 2.11 2.007 3.35 4.795 3.778 2.063.19 4.035-.168 5.861-1.058-1.512-2.026-5.094-2.944-10.656-2.72Z"/>
  <mask id="mask0_6117_36230" width="56" height="46" x="128" y="20" maskUnits="userSpaceOnUse" style="mask-type:luminance">
    <path fill="#fff" d="M144.353 25.312a37.464 37.464 0 0 0-4.544 3.07c-1.958 1.591-3.485 3.014-4.579 4.268a68.093 68.093 0 0 0-1.645 2.019c-.16.23-.327.455-.501.672a34.35 34.35 0 0 0-2.077 3.371c-1.61 3.07-2.454 6.266-2.544 9.58v.337c0 .323.014.652.035.974l.216 1.57c.09.519.202 1.03.32 1.535 1.513 5.663 5.443 9.517 11.779 11.57a20.96 20.96 0 0 0 2.216.596l2.216.484c1.206.161 2.446.266 3.722.301l2.794-.112a28.413 28.413 0 0 0 1.792-.189l3.972-.785a36.983 36.983 0 0 0 4.077-1.233c5.025-1.837 9.318-4.395 12.886-7.675a33.033 33.033 0 0 0 3.081-3.181c.167-.232.32-.456.467-.673a13.92 13.92 0 0 0 1.143-1.5c3.052-4.24 4.613-8.424 4.69-12.538v-.785a16.2 16.2 0 0 0-.355-3.07c-1.234-5.781-5.144-9.825-11.744-12.13-7.896-2.692-17.033-1.522-27.417 3.517v.007Z"/>
  </mask>
  <g fill="#A1EC43" mask="url(#mask0_6117_36230)">
    <path d="M195.994 20.687c-10.573 7.625-16.594-.813-27.167 6.812-10.572 7.625-4.551 16.07-15.123 23.695-10.573 7.625-16.594-.813-27.167 6.812-7.269 5.242-6.83 10.387-9.088 15.825l6.217 8.929c2.084-4.717 1.749-9.875 8.056-16.12 9.284-9.173 17.208.295 27.78-7.33 10.573-7.625 4.551-16.07 15.124-23.695 10.572-7.626 16.594.813 27.166-6.813 6.077-4.38 6.767-8.69 8.147-13.161L203.918 7c-1.359 4.618-2.035 9.447-7.924 13.694v-.007Z"/>
    <path d="M190.64 12.999c-10.572 7.625-16.594-.813-27.166 6.812-10.573 7.625-4.551 16.07-15.124 23.695-10.572 7.625-16.594-.813-27.166 6.812-7.269 5.242-6.83 10.387-9.088 15.825l2.801 4.03c2.084-4.717 1.75-9.875 8.057-16.12 9.283-9.173 17.207.295 27.78-7.33 10.572-7.625 4.551-16.07 15.123-23.695 10.573-7.625 16.594.813 27.167-6.812 6.077-4.38 6.767-8.69 8.147-13.162l-2.607-3.75c-1.359 4.619-2.035 9.448-7.924 13.695Z"/>
  </g>
  <path fill="#A1EC43" d="m175.833 78.498 6.503 2.18-6.87.393c-.966.058-1.805.668-2.12 1.555l-2.248 6.307-.404-6.663a2.332 2.332 0 0 0-1.603-2.057l-6.503-2.18 6.87-.392c.966-.058 1.805-.669 2.12-1.555l2.247-6.307.405 6.663c.06.937.689 1.751 1.603 2.056ZM109.202 19.778l7.888.08-7.326 2.848c-1.027.4-1.709 1.366-1.724 2.442l-.082 7.651-2.937-7.106c-.412-.996-1.408-1.657-2.517-1.672l-7.889-.08 7.327-2.848c1.027-.4 1.708-1.366 1.723-2.441l.083-7.652 2.936 7.107c.412.995 1.409 1.656 2.518 1.67ZM138.764 29.35l7.735 1.554-7.73 1.428c-1.083.2-1.934 1.023-2.149 2.076l-1.512 7.502-1.556-7.53c-.219-1.056-1.074-1.892-2.161-2.113l-7.734-1.554 7.73-1.428c1.083-.2 1.933-1.023 2.149-2.076l1.512-7.502 1.556 7.53c.219 1.056 1.074 1.892 2.16 2.113Z"/>
</svg>